# xmcd CD database file
#
# Track frame offsets:
#	150
#	11811
#	22913
#	35395
#	47911
#	57268
#	67157
#	77148
#	89741
#	98039
#
# Disc length: 1440 seconds
#
# Revision: 1
# Processed by: cddbd v1.5.1PL2 Copyright (c) Steve Scherf et al.
# Submitted via: CDex 1.51
#
DISCID=81059e0a
DTITLE=Johnny Cash - American Music Legends
DYEAR=2004
DGENRE=Country
TTITLE0=Big River
TTITLE1=Cry, Cry, Cry
TTITLE2=Give My Love to Rose
TTITLE3=I Walk the Line
TTITLE4=Luther Played the Boogie
TTITLE5=Rock Island Line
TTITLE6=Ballard of a Teenage Queen
TTITLE7=Folsom Prison Blues
TTITLE8=Guess Things Happen That Way
TTITLE9=Hey Porter
EXTD=YEAR: 2004
EXTT0=
EXTT1=
EXTT2=
EXTT3=
EXTT4=
EXTT5=
EXTT6=
EXTT7=
EXTT8=
EXTT9=
PLAYORDER=
